<svg xmlns="http://www.w3.org/2000/svg" width="1280" viewBox="0 0 960 540" height="720" version="1.0"><defs><clipPath id="a"><path d="M.9 0H959v539H1Zm0 0"/></clipPath><clipPath id="b"><path d="M346.4 123H367v58h-20.6Zm0 0"/></clipPath><clipPath id="c"><path d="M351 102.5h10v5.5h-10Zm0 0"/></clipPath><clipPath id="d"><path d="M346.4 136H367v36h-20.6Zm0 0"/></clipPath><clipPath id="e"><path d="M531.7 106h42v56.4h-42Zm0 0"/></clipPath><clipPath id="f"><path d="M541 102.5h23V114h-23Zm0 0"/></clipPath><clipPath id="g"><path d="M512 369h44v75.3h-44Zm0 0"/></clipPath><clipPath id="h"><path d="M578 406h17v17.4h-17Zm0 0"/></clipPath><clipPath id="i"><path d="M598 406h16v17.4h-16Zm0 0"/></clipPath><clipPath id="j"><path d="M576.3 368H616v41h-39.7Zm0 0"/></clipPath></defs><g clip-path="url(#a)" fill="#fff"><path d="M.9 0H959v539H1Zm0 0"/><path d="M.9 0H959v539H1Zm0 0"/></g><path fill="#1e0b13" d="M360.2 127h-7.8v-12.7h7.8v12.8"/><path fill="#ee2e46" d="M360.2 119h-7.8v-12.3h7.8v12.2"/><path fill="#dc1c28" d="M360.2 109h-7.8v-3.4h7.8v3.4"/><g clip-path="url(#b)"><path fill="#1e0b13" d="M359.7 123.6H353s-6.7 4.7-6.7 7.7v47.3c0 1 .8 1.7 1.7 1.7h16.6c1 0 1.7-.8 1.7-1.7v-47.3c0-3-6.7-7.7-6.7-7.7"/></g><g clip-path="url(#c)"><path fill="#ee2e46" d="M359.6 108H353c-.7 0-1.2-.6-1.2-1.2v-3.2c0-.6.5-1.1 1.2-1.1h6.5c.6 0 1.1.5 1.1 1v3.3c0 .6-.5 1.1-1.1 1.1"/></g><g clip-path="url(#d)"><path fill="#fcd89f" d="M346.4 171.8h20v-35h-20Zm0 0"/></g><path fill="#50183d" d="M349.4 178.9c-1 0-1.6-.8-1.6-1.6v-5.5h3.2v5.5c0 .8-.7 1.6-1.6 1.6m1.6-42h-3.3v-2.6c0-1 .8-1.7 1.7-1.7.9 0 1.6.8 1.6 1.7v2.5"/><path fill="#fff" d="M347.8 171.8h3.2v-35h-3.3Zm0 0"/><path fill="#50183d" d="M349.4 132.2a1.7 1.7 0 1 1 0-3.3 1.7 1.7 0 0 1 0 3.3"/><path fill="#679f2d" d="M364.7 158.3c0 1.5-.6 3-1 4.3l-.7 4.2c-.2 1.6-.3 3.2-.6 4.6 0-2.3.5-4.6.5-6.9 0-1 .2-2.1.4-3.2 0-1 .2-2.4 1-3.1.2 0 .4.1.5.4"/><path fill="#679f2d" d="M366.6 157.9c-1 0-2.2 1-2.9 1.6.6-1.6 2.5-2 2.8-3.6 0-.8.1-1.5.3-2.3l1-2.1v.9c.3-.3.6-1 1-1.3a9.9 9.9 0 0 1 6.9-2c-.3.5-1 .8-1.2 1.3 1.2-.1 2.2-.3 3.4 0 .5.2 3.3 1 3 1.8-.1.2-1.2.6-1.4.6l-1.7.5c-.4.2-2.7 1.3-2.7 2 2 1.5-2 1.1-2 2.5 0 .4.4.7 0 1-.3.3-.8.1-1.2.2-.2 0-1 0-1.1.2-.2.3 0 .8 0 1.1l-1.5-.3c-.5-.1-1 0-1.6 0-1.7.2-1-1.3-1.3-2.4"/><path fill="#a92f3c" d="M359.7 154.2c2.1.1 4.5 2.4 5.6 4 .5.8.6 1.7 1.6 1.7s1.8.1 2.6 1c0 .1-.4.8-.6.8-.2 0-.9-.6-1.1-.7-.8-.3-1.6-.5-2 .4-.7 1.5-.2 3.6.2 5-.3-.2-1.2-.4-1.4-.7-.2-.3 0-1.2 0-1.5.2-1.1.2-2.1.1-3.2 0-1 0-1.9-.8-2.7a4.7 4.7 0 0 0-2.9-1.5c-.7 0-1.2 0-1.4-.8-.1-.7 0-1.4.3-2"/><path fill="#740f44" d="M367.6 173.6a4.7 4.7 0 1 0 3.3-8.7 4.7 4.7 0 0 0-3.3 8.7"/><path fill="#740f44" d="M372.5 180.1a4.7 4.7 0 1 0 3.3-8.7 4.7 4.7 0 0 0-3.3 8.7"/><path fill="#740f44" d="M364.5 178.6c2.4 1 5.1-.3 6-2.7a4.7 4.7 0 1 0-6 2.7M370.6 161.6a4.7 4.7 0 1 0 3.4-8.7 4.7 4.7 0 0 0-3.4 8.7"/><path fill="#9b1560" d="M369.5 168.6a4.7 4.7 0 1 0 3.4-8.7 4.7 4.7 0 0 0-3.4 8.7"/><path fill="#9b1560" d="M375.4 163.5c2.4.9 5-.3 6-2.7a4.7 4.7 0 1 0-8.7-3.4c-1 2.4.3 5.1 2.7 6"/><path fill="#9b1560" d="M379.5 169.2a4.7 4.7 0 1 0 3.4-8.7 4.7 4.7 0 0 0-3.4 8.7M378.3 179a4.7 4.7 0 1 0 3.3-8.8 4.7 4.7 0 0 0-3.3 8.7"/><path fill="#b7186a" d="M374 172.3a4.7 4.7 0 1 0 3.4-8.7 4.7 4.7 0 0 0-3.4 8.7"/><path fill="#b7186a" d="M382.3 172.7a4.7 4.7 0 1 0 3.4-8.7 4.7 4.7 0 0 0-3.4 8.7"/><path fill="#b7186a" d="M385 178.5a4.7 4.7 0 1 0 3.4-8.7 4.7 4.7 0 0 0-3.3 8.7"/><path fill="#7fcb27" d="M363.8 162.1c2.3 1 4.8 2.6 6 5 .3.8 1 2.5-.4 2.4-.9 0-2-1.6-2.8-1.4-1 .3.4 3 .6 3.7.2.5.7 1.7-.1 1.9-.5.1-1.3-1-1.8-1.1-1.6-.5-.3 1.3 0 2 .3.5 1.2 1.6 1 2.3-.6-.3-1.4-1-2-1-.1 1.5 1.7 2.6 2.1 4-1-.4-2.5-1.2-3.4-2-.7-.7-1.8-3.7-2.3-1.7a5.8 5.8 0 0 1-1.4-2.5c-.4-1.2 0-2.3 0-3.5-.5.3-.8.9-1.2 1.3-1.9-1.5 1-5.5 1.8-6.8-.3.1-.8.2-1-.1.7-1.5 3.3-2.7 5-2.2"/><path stroke-linecap="round" transform="matrix(2.24026 0 0 2.2342 443.7 140.4)" fill="none" d="M.5 0h19.6" stroke="#545454"/><path stroke-linecap="round" transform="matrix(2.24026 0 0 2.2342 495.4 140.4)" fill="#545454" stroke-linejoin="round" d="m-2.5-1.5 2 1.5-2 1.5Zm0 0" stroke="#545454"/><path stroke-linecap="round" transform="matrix(0 2.22899 -2.42248 0 554 180.7)" fill="none" d="M.5 0h17.3" stroke="#545454"/><path stroke-linecap="round" transform="matrix(0 2.22899 -2.42248 0 554 227)" fill="#545454" stroke-linejoin="round" d="m-2.5-1.5 2 1.5-2 1.5Zm0 0" stroke="#545454"/><path stroke-linecap="round" transform="matrix(2.25099 0 0 2.2342 367 409.4)" fill="none" d="M.5 0h51" stroke="#545454"/><path stroke-linecap="round" transform="matrix(2.25099 0 0 2.2342 489.8 409.4)" fill="#545454" stroke-linejoin="round" d="m-2.5-1.5 2 1.5-2 1.5Zm0 0" stroke="#545454"/><path stroke-linecap="round" transform="matrix(0 2.25255 -2.42248 0 368.8 299.7)" fill="none" d="M.5 0h47.9" stroke="#545454"/><path stroke-linecap="round" transform="matrix(-2.2545 0 0 -2.2342 495.5 251.6)" fill="none" d="M.5 0h15.4" stroke="#545454"/><path stroke-linecap="round" transform="matrix(-2.2545 0 0 -2.2342 452.8 251.6)" fill="#545454" stroke-linejoin="round" d="m-2.5-1.5 2 1.5-2 1.5Zm0 0" stroke="#545454"/><g clip-path="url(#e)"><path fill="#fff2cc" d="M569.7 162.4h-34a3.9 3.9 0 0 1-4-4v-47.9c0-2.1 1.8-3.9 4-3.9h34c2.2 0 4 1.8 4 4v47.9c0 2.1-1.8 3.9-4 3.9"/></g><path fill="#fff2cc" d="M569.7 157.1h-34V112h34V157"/><g clip-path="url(#f)"><path fill="#192746" d="M563.4 113.4H542v-8a3 3 0 0 1 3-3h15.3a3 3 0 0 1 3 3v8"/></g><path fill="#fff" d="M550.2 104.3h-3.3a1.8 1.8 0 1 0 0 3.5h3.3v-3.5M558.5 104.3h-3.3v3.5h3.3a1.8 1.8 0 1 0 0-3.5"/><path stroke-linecap="round" transform="matrix(.0303 0 0 -.03019 496.5 196.6)" fill="none" d="M1798.6 2494.1h449.5M1798.6 2306.5h449.5M1798.6 2118.7h449.5M1798.6 1931h449.5M1798.6 1743.3h449.5M1798.6 1555.6h449.5" stroke="#192746" stroke-width="30" stroke-miterlimit="10"/><path stroke-linecap="round" transform="matrix(.0303 0 0 -.03019 496.5 196.6)" fill="none" stroke-linejoin="round" d="M1584.7 2330h-164.1v164.1h164.1ZM1584.7 1954.6h-164.1v164.1h164.1ZM1584.7 1579.2h-164.1v164.1h164.1Zm0 0" stroke="#192746" stroke-width="30" stroke-miterlimit="10"/><path stroke-linecap="round" transform="matrix(.0303 0 0 -.03019 496.5 196.6)" fill="none" stroke-linejoin="round" d="m1461.3 2441.5 63.4-60.9 142.8 243.3M1461.3 2065.5l63.4-60.8 142.8 243.2M1461.3 1689.6l63.4-60.8 142.8 243.1" stroke="#d64151" stroke-width="30" stroke-miterlimit="10"/><g clip-path="url(#g)"><path fill="#c1f9c1" d="M531.2 413.7c2.1 3.4.8 24.8.4 29.3H521c-.7 0-1.3.6-1.5 1.3H548c-.1-.7-.8-1.3-1.5-1.3h-10.6c-.4-4.5-1.7-25.9.4-29.3 2.5-4 21-7.4 19.3-21.3-1.5-12.3-9.1-23-9.1-23H521s-7 10.6-8.5 23c-1.7 13.9 16.2 17.3 18.7 21.3"/></g><path fill="#4a0c1b" d="M553.3 392h-38.6c-1.5 12 14.6 15 16.8 18.5h4.4c2.2-3.5 18.9-6.5 17.4-18.5"/><path fill="#a67b90" d="M546.4 369.3c0 .7-5.7 1.3-12.7 1.3-7 0-12.7-.6-12.7-1.3 0-.7 5.7-1.3 12.7-1.3 7 0 12.7.6 12.7 1.3M553.3 392c0 .8-11.3 1.6-19.6 1.6s-19-.8-19-1.6a75 75 0 0 1 19-1.4 81 81 0 0 1 19.6 1.4"/><path fill="#545454" d="m600 383.6-5.6 5.6-2.2-2.2c-.7-.7-1.7-.7-2.4 0-.7.6-.7 1.7 0 2.4l3.4 3.5a1.7 1.7 0 0 0 2.4 0l6.8-7c.6-.6.6-1.7 0-2.3-.7-.7-1.7-.7-2.4 0"/><g clip-path="url(#h)"><path fill="#545454" d="M591.1 409.9c-2.5.4-5-.7-6.4-2.8l-.4-.6-6 12.5 5.8-.3 3.3 4.7 6.6-14-2.9.5"/></g><g clip-path="url(#i)"><path fill="#545454" d="m605.6 407.4-2.1 2a6.4 6.4 0 0 1-4.4 1.7h-.2l5.9 12.3 3.3-4.7 5.7.3-5.7-12-2.5.4"/></g><g clip-path="url(#j)"><path fill="#545454" d="M596.1 401c-7 0-12.7-5.7-12.7-12.8 0-7.1 5.7-12.9 12.7-12.9 7 0 12.7 5.8 12.7 13 0 7-5.7 12.8-12.7 12.8Zm19.4-9.6-1.1-3.6 1-3.7c.3-1.4-.2-2.8-1.3-3.7l-2.8-2.4-1.2-3.6a3.6 3.6 0 0 0-3-2.5l-3.7-.5-2.9-2.3c-1-1-2.6-1.1-3.9-.5l-3.3 1.7-3.7-.5c-1.4-.1-2.8.5-3.5 1.8l-2 3.2-3.2 1.6c-1.3.7-2.1 2-2 3.4v3.8l-1.9 3.2c-.7 1.3-.7 2.8.1 4l2.1 3.1.1 3.8c0 1.4 1 2.7 2.2 3.2l3.4 1.5 2.1 3.1a3.6 3.6 0 0 0 3.6 1.6l3.7-.7 3.4 1.5c1.3.6 2.8.3 3.9-.7l2.7-2.5 3.7-.6a3.6 3.6 0 0 0 2.8-2.7l1-3.7 2.7-2.5c1-1 1.5-2.5 1-3.8"/></g><path d="M522.2 63.6h-6.4v17.8h-2.6V63.6h-6.4v-2.1h15.4ZM530.9 81.6c-2 0-3.7-.6-5-2a7.3 7.3 0 0 1-1.8-5.2v-.5c0-1.4.3-2.8.8-3.9.6-1.2 1.4-2 2.4-2.7 1-.7 2-1 3.2-1 2 0 3.5.7 4.5 2 1.1 1.2 1.6 3 1.6 5.3v1.1h-10c0 1.5.5 2.6 1.3 3.5a4 4 0 0 0 3.1 1.4c.9 0 1.7-.2 2.3-.6.6-.3 1.1-.8 1.6-1.4l1.5 1.2a6.2 6.2 0 0 1-5.5 2.8Zm-.4-13.2c-1 0-1.8.4-2.5 1.1-.7.8-1.1 1.8-1.3 3.1h7.4v-.2c0-1.2-.4-2.2-1-3-.7-.7-1.5-1-2.6-1ZM548.2 77.4c0-.6-.3-1.2-.8-1.5-.5-.4-1.4-.8-2.7-1-1.3-.3-2.3-.6-3-1-.8-.4-1.4-.8-1.7-1.4-.4-.5-.6-1.1-.6-1.9 0-1.2.5-2.2 1.6-3a6 6 0 0 1 3.9-1.3c1.7 0 3 .4 4 1.3 1.1.9 1.6 2 1.6 3.3H548c0-.7-.3-1.3-.9-1.8-.6-.5-1.3-.7-2.2-.7-1 0-1.7.2-2.2.6-.5.4-.7 1-.7 1.6 0 .6.2 1 .7 1.4.5.3 1.3.5 2.6.8l3 1c.8.4 1.4.9 1.8 1.5.4.5.6 1.2.6 2 0 1.3-.6 2.3-1.6 3.1-1 .8-2.4 1.2-4.1 1.2-1.2 0-2.3-.2-3.2-.6-.9-.4-1.6-1-2.1-1.7-.5-.8-.8-1.6-.8-2.5h2.6c0 .9.3 1.5 1 2a4 4 0 0 0 2.5.8 4 4 0 0 0 2.3-.6c.6-.4.9-1 .9-1.6ZM557.4 63v3.6h2.7v2h-2.7v9.1c0 .6.1 1 .3 1.3.3.3.7.5 1.3.5.3 0 .7 0 1.2-.2v2c-.7.2-1.3.3-2 .3-1 0-2-.3-2.5-1-.6-.7-.8-1.6-.8-2.9v-9.2h-2.7v-2h2.7V63ZM565.8 81.4h-2.5V66.6h2.5Zm-2.7-18.7c0-.4.1-.8.4-1 .2-.3.6-.5 1-.5.6 0 1 .2 1.2.4.3.3.4.7.4 1 0 .5-.1.8-.4 1.1-.2.3-.6.4-1.1.4-.5 0-.9-.1-1.1-.4-.3-.3-.4-.6-.4-1ZM572.3 66.6v1.9a5.4 5.4 0 0 1 4.5-2.2c3 0 4.7 1.8 4.7 5.3v9.8H579v-9.8c0-1-.3-1.9-.8-2.4s-1.2-.7-2.2-.7c-.8 0-1.5.2-2.2.6-.6.5-1 1-1.4 1.7v10.6h-2.5V66.6ZM584.7 73.9c0-2.3.5-4.2 1.6-5.5 1-1.4 2.5-2 4.2-2a5 5 0 0 1 4.2 1.8l.2-1.6h2.3V81a6 6 0 0 1-1.7 4.5 6.2 6.2 0 0 1-4.6 1.7c-1 0-2.1-.3-3.1-.7-1-.5-1.8-1-2.4-1.9l1.3-1.5a5 5 0 0 0 4 2c1.2 0 2.2-.3 2.9-1a4 4 0 0 0 1-3V80a5.2 5.2 0 0 1-4.1 1.7 5 5 0 0 1-4.2-2 9.2 9.2 0 0 1-1.6-5.7Zm2.5.2c0 1.7.4 3 1 4 .7 1 1.7 1.4 3 1.4 1.5 0 2.7-.7 3.4-2.2v-6.7c-.8-1.4-2-2.1-3.5-2.1-1.2 0-2.2.5-2.9 1.4-.6 1-1 2.4-1 4.2ZM332.6 75l.3 2.7.6-2.3 4-14h2.1l3.9 14 .5 2.4.5-2.7 3-13.6h2.7l-4.8 19.9H343l-4.1-14.5-.3-1.5-.4 1.5-4.2 14.5h-2.4l-4.8-20h2.6ZM355.4 81.4H353V66.6h2.5Zm-2.7-18.7c0-.4.1-.8.4-1 .2-.3.6-.5 1-.5.6 0 1 .2 1.2.4.3.3.4.7.4 1 0 .5-.1.8-.4 1.1-.2.3-.6.4-1.1.4-.5 0-.9-.1-1.1-.4-.3-.3-.4-.6-.4-1ZM361.8 66.6l.1 1.9a5.4 5.4 0 0 1 4.4-2.2c3.2 0 4.8 1.8 4.8 5.3v9.8h-2.5v-9.8c0-1-.3-1.9-.8-2.4s-1.2-.7-2.2-.7c-.8 0-1.5.2-2.2.6-.6.5-1 1-1.4 1.7v10.6h-2.5V66.6ZM381 81.6c-2 0-3.6-.6-4.9-2a7.3 7.3 0 0 1-1.9-5.2v-.5c0-1.4.3-2.8.9-3.9.5-1.2 1.3-2 2.3-2.7 1-.7 2.1-1 3.3-1 2 0 3.4.7 4.5 2 1 1.2 1.6 3 1.6 5.3v1.1h-10c0 1.5.4 2.6 1.2 3.5a4 4 0 0 0 3.1 1.4c1 0 1.7-.2 2.3-.6.6-.3 1.2-.8 1.6-1.4l1.6 1.2a6.2 6.2 0 0 1-5.6 2.8Zm-.3-13.2c-1 0-1.9.4-2.6 1.1-.7.8-1 1.8-1.3 3.1h7.5v-.2c-.1-1.2-.5-2.2-1.1-3-.6-.7-1.4-1-2.5-1ZM354.5 232l-1.6 1.6v5.2h-2.5v-21h2.5v12.7l1.3-1.6 4.6-4.9h3.1l-5.7 6.2 6.4 8.6h-3ZM369.8 231.4H363v-2h6.7ZM387.9 238.8h-2.6l-10-15.3v15.3h-2.7V219h2.7l10 15.4V219h2.6ZM407.8 238.8h-2.6l-10-15.3v15.3h-2.7V219h2.7l10 15.4V219h2.6ZM325.8 269.7h-4.7v8h-2.6V258h6.6c2.2 0 4 .5 5.1 1.5 1.3 1 1.9 2.5 1.9 4.4 0 1.3-.4 2.4-1 3.3a6 6 0 0 1-2.8 2l4.6 8.5v.1h-2.8Zm-4.7-2.1h4c1.4 0 2.4-.4 3.2-1 .7-.7 1.1-1.6 1.1-2.8 0-1.2-.3-2.1-1-2.8-.8-.6-1.9-1-3.2-1h-4ZM341.5 278c-2 0-3.7-.7-5-2a7.3 7.3 0 0 1-1.8-5.2v-.5c0-1.5.3-2.8.8-4 .6-1 1.4-2 2.4-2.6 1-.7 2-1 3.2-1 2 0 3.5.6 4.5 1.9 1 1.3 1.6 3 1.6 5.4v1h-10c0 1.5.5 2.7 1.3 3.6a4 4 0 0 0 3.1 1.4c.9 0 1.6-.2 2.3-.6.6-.4 1.1-.8 1.6-1.4l1.5 1.2a6.2 6.2 0 0 1-5.5 2.8Zm-.4-13.2c-1 0-1.8.3-2.5 1.1-.7.7-1.1 1.8-1.3 3.1h7.4v-.2c0-1.3-.4-2.3-1-3-.7-.7-1.5-1-2.6-1ZM349.5 270.2c0-2.3.6-4 1.6-5.5 1.1-1.3 2.5-2 4.3-2a5 5 0 0 1 4.2 2l.1-1.7h2.3v14.4a6 6 0 0 1-1.7 4.5 6.2 6.2 0 0 1-4.6 1.7c-1 0-2-.3-3-.7-1.1-.5-1.9-1.1-2.4-1.9l1.3-1.5a5 5 0 0 0 4 2c1.2 0 2.2-.4 2.8-1a4 4 0 0 0 1-3v-1.2a5.2 5.2 0 0 1-4 1.7 5 5 0 0 1-4.3-2 9.2 9.2 0 0 1-1.6-5.8Zm2.6.3c0 1.7.3 3 1 4 .7.9 1.6 1.4 2.9 1.4 1.6 0 2.7-.8 3.5-2.2V267c-.8-1.4-2-2.2-3.5-2.2-1.2 0-2.2.5-2.9 1.5-.7 1-1 2.3-1 4.2ZM373 265.2h-1.3c-1.6 0-2.8.6-3.4 2v10.5h-2.5V263h2.5v1.7a4 4 0 0 1 4.7-1.8ZM381.4 278c-2 0-3.6-.7-4.9-2a7.3 7.3 0 0 1-1.9-5.2v-.5c0-1.5.3-2.8.9-4 .5-1 1.3-2 2.3-2.6 1-.7 2.1-1 3.3-1 2 0 3.4.6 4.5 1.9 1 1.3 1.6 3 1.6 5.4v1h-10c0 1.5.4 2.7 1.2 3.6a4 4 0 0 0 3.1 1.4c1 0 1.7-.2 2.3-.6.6-.4 1.2-.8 1.6-1.4l1.6 1.2a6.2 6.2 0 0 1-5.6 2.8Zm-.3-13.2c-1 0-1.9.3-2.6 1.1-.7.7-1.1 1.8-1.3 3.1h7.4v-.2c0-1.3-.4-2.3-1-3-.6-.7-1.5-1-2.5-1ZM398.7 273.8c0-.7-.3-1.2-.8-1.6-.5-.3-1.4-.7-2.7-1-1.3-.2-2.3-.5-3-1-.8-.3-1.3-.8-1.7-1.3-.4-.5-.5-1.1-.5-1.9 0-1.2.5-2.2 1.5-3a6 6 0 0 1 4-1.3c1.6 0 3 .4 4 1.3s1.6 2 1.6 3.3h-2.6c0-.7-.3-1.3-.9-1.8-.6-.5-1.3-.7-2.2-.7-.9 0-1.6.2-2.1.6-.6.4-.8.9-.8 1.5 0 .7.2 1.1.7 1.4.5.3 1.4.6 2.6 1 1.3.2 2.3.5 3 1 .9.3 1.5.8 1.8 1.3.4.6.6 1.3.6 2 0 1.4-.5 2.4-1.6 3.2-1 .8-2.4 1.2-4 1.2-1.3 0-2.3-.2-3.2-.6-1-.4-1.7-1-2.2-1.8-.5-.7-.7-1.5-.7-2.4h2.5c0 .8.4 1.5 1 2a4 4 0 0 0 2.5.8 4 4 0 0 0 2.3-.6c.6-.4.9-1 .9-1.6ZM413 273.8c0-.7-.2-1.2-.7-1.6-.5-.3-1.4-.7-2.7-1-1.3-.2-2.3-.5-3-1-.8-.3-1.3-.8-1.7-1.3-.4-.5-.5-1.1-.5-1.9 0-1.2.5-2.2 1.5-3a6 6 0 0 1 4-1.3c1.6 0 3 .4 4 1.3s1.6 2 1.6 3.3h-2.6c0-.7-.3-1.3-.9-1.8-.5-.5-1.3-.7-2.2-.7-.9 0-1.6.2-2.1.6-.5.4-.8.9-.8 1.5 0 .7.2 1.1.7 1.4.5.3 1.4.6 2.6 1 1.3.2 2.3.5 3 1 .9.3 1.5.8 1.8 1.3.4.6.6 1.3.6 2 0 1.4-.5 2.4-1.6 3.2-1 .8-2.4 1.2-4 1.2-1.3 0-2.3-.2-3.2-.6-1-.4-1.6-1-2.2-1.8-.5-.7-.7-1.5-.7-2.4h2.5c0 .8.4 1.5 1 2a4 4 0 0 0 2.5.8 4 4 0 0 0 2.3-.6c.6-.4.9-1 .9-1.6ZM418.2 270.2c0-1.4.3-2.7.9-3.9a6.4 6.4 0 0 1 5.8-3.6c2 0 3.7.7 4.9 2a8 8 0 0 1 1.9 5.6v.2c0 1.5-.3 2.8-.9 3.9a6.3 6.3 0 0 1-5.8 3.6c-2 0-3.7-.7-5-2a8 8 0 0 1-1.8-5.6Zm2.6.3c0 1.7.3 3 1.1 4s1.8 1.5 3 1.5c1.3 0 2.3-.5 3.1-1.5a7 7 0 0 0 1.1-4.3c0-1.6-.3-3-1.1-4s-1.8-1.4-3-1.4c-1.3 0-2.3.5-3 1.5-.9 1-1.2 2.4-1.2 4.2ZM442 265.2h-1.3c-1.6 0-2.7.6-3.3 2v10.5h-2.6V263h2.5v1.7a4 4 0 0 1 4.7-1.8ZM501.3 471.9l.4 2.6.5-2.3 4-14h2.2l3.8 14 .6 2.4.4-2.7 3-13.6h2.7l-4.8 19.9h-2.4l-4.1-14.5-.3-1.5-.3 1.5-4.3 14.5h-2.4l-4.8-20h2.7ZM524.2 478.2h-2.6v-14.8h2.6Zm-2.8-18.7c0-.4.1-.8.4-1 .2-.3.6-.5 1.1-.5.5 0 .9.2 1.1.4.3.3.4.7.4 1 0 .5-.1.8-.4 1.1-.2.3-.6.4-1.1.4-.5 0-.9-.1-1.1-.4-.3-.3-.4-.6-.4-1ZM530.6 463.4v1.9a5.4 5.4 0 0 1 4.5-2.2c3.1 0 4.7 1.8 4.7 5.3v9.8h-2.5v-9.8c0-1-.3-1.9-.8-2.4-.4-.5-1.2-.7-2.2-.7-.8 0-1.5.2-2.1.6-.7.5-1.1 1-1.5 1.8v10.5h-2.5v-14.8ZM549.7 478.4c-2 0-3.6-.6-4.9-2a7.3 7.3 0 0 1-1.8-5.2v-.5c0-1.4.2-2.7.8-3.9.6-1.1 1.4-2 2.4-2.7 1-.7 2-1 3.2-1 2 0 3.4.7 4.5 2 1 1.2 1.6 3 1.6 5.3v1.1h-10c0 1.5.4 2.6 1.3 3.5a4 4 0 0 0 3 1.4c1 0 1.7-.2 2.3-.6.7-.3 1.2-.8 1.7-1.4l1.5 1.2a6.2 6.2 0 0 1-5.6 2.8Zm-.3-13.2c-1 0-1.9.4-2.5 1.1-.7.8-1.2 1.8-1.3 3.1h7.4v-.2c-.1-1.2-.4-2.2-1-3-.7-.6-1.5-1-2.6-1ZM580.9 468.9c0 1.9-.3 3.5-1 5a7.6 7.6 0 0 1-2.5 3.2l3.6 2.8-1.8 1.6-4.2-3.3a9 9 0 0 1-2 .2c-1.6 0-3-.3-4.3-1.1a7.6 7.6 0 0 1-2.8-3.3c-.6-1.4-1-3-1-5v-1.4c0-1.9.3-3.6 1-5a7.5 7.5 0 0 1 2.8-3.4 7.6 7.6 0 0 1 4.2-1.2 7.5 7.5 0 0 1 7 4.5c.7 1.5 1 3.2 1 5.1Zm-2.6-1.3a9 9 0 0 0-1.4-5.4c-1-1.3-2.3-2-4-2-1.7 0-3 .7-3.9 2-1 1.2-1.4 3-1.5 5.2v1.5c0 2.3.5 4 1.5 5.4 1 1.3 2.2 2 4 2 1.6 0 3-.7 3.8-2 1-1.2 1.5-3 1.5-5.2ZM593.7 476.7c-1 1.2-2.5 1.7-4.4 1.7-1.5 0-2.7-.4-3.6-1.3-.8-1-1.2-2.3-1.2-4v-9.7h2.5v9.5c0 2.3 1 3.4 2.7 3.4 2 0 3.2-.7 3.9-2.2v-10.7h2.5v14.8h-2.4ZM609 478.2l-.3-1.6a5.6 5.6 0 0 1-4.2 1.8c-1.5 0-2.7-.4-3.6-1.2a4 4 0 0 1-1.4-3.1c0-1.6.6-2.8 1.8-3.6a8.3 8.3 0 0 1 5-1.3h2.4v-1.1c0-1-.3-1.6-.8-2.2-.6-.5-1.3-.7-2.4-.7-.9 0-1.6.2-2.2.7-.6.4-1 1-1 1.6h-2.5c0-.7.3-1.5.8-2.1.5-.7 1.2-1.3 2.1-1.7a7 7 0 0 1 3-.6c1.7 0 3 .4 4 1.3s1.5 2 1.5 3.5v6.8c0 1.4.2 2.4.5 3.2v.3Zm-4.1-2c.8 0 1.5-.2 2.2-.6.7-.4 1.2-1 1.6-1.6v-3h-2c-3.1 0-4.6.9-4.6 2.7 0 .8.2 1.4.7 1.9a3 3 0 0 0 2 .6ZM617.9 478.2h-2.5v-21h2.5ZM624.7 478.2H622v-14.8h2.6Zm-2.8-18.7c0-.4.2-.8.4-1 .3-.3.6-.5 1.1-.5.5 0 .9.2 1.1.4.3.3.4.7.4 1 0 .5-.1.8-.4 1.1-.2.3-.6.4-1 .4-.6 0-1-.1-1.2-.4-.2-.3-.4-.6-.4-1ZM632.1 459.8v3.6h2.8v2H632v9.1c0 .6.2 1 .4 1.3.3.3.7.5 1.3.5l1.2-.2v2c-.7.2-1.3.3-2 .3-1.1 0-2-.3-2.5-1-.6-.7-.9-1.6-.9-2.9v-9.1H627v-2h2.7v-3.6ZM642.7 474.5l3.4-11.1h2.7l-6 17c-.8 2.5-2.3 3.7-4.3 3.7h-.5l-1-.2v-2h.8c.8 0 1.5-.2 2-.5.4-.3.8-1 1.1-1.9l.6-1.5-5.3-14.6h2.8ZM516.6 255h-8.3v8.8h-2.6V244H518v2.1h-9.7v6.8h8.3ZM526.9 264.1c-2 0-3.7-.6-5-2a7.3 7.3 0 0 1-1.8-5.2v-.5c0-1.5.3-2.8.8-4 .6-1 1.4-2 2.4-2.6 1-.7 2-1 3.2-1 2 0 3.4.6 4.5 1.9 1 1.3 1.6 3 1.6 5.4v1h-10c0 1.5.5 2.7 1.3 3.6a4 4 0 0 0 3 1.4c1 0 1.7-.2 2.3-.6.7-.3 1.2-.8 1.7-1.4l1.5 1.2a6.2 6.2 0 0 1-5.5 2.8Zm-.4-13.2c-1 0-1.8.3-2.5 1.1-.7.7-1.2 1.8-1.3 3.1h7.4v-.2c0-1.3-.4-2.3-1-3-.7-.7-1.5-1-2.6-1ZM544.6 263.8l-.3-1.5a5.6 5.6 0 0 1-4.2 1.8c-1.5 0-2.7-.4-3.6-1.2a4 4 0 0 1-1.4-3.2c0-1.5.6-2.7 1.7-3.5a8.3 8.3 0 0 1 5-1.3h2.4v-1.2c0-.9-.2-1.6-.8-2-.5-.6-1.3-.9-2.3-.9-.9 0-1.6.3-2.3.7-.6.5-.9 1-.9 1.7h-2.5c0-.8.2-1.5.8-2.2.5-.7 1.2-1.2 2.1-1.6a7 7 0 0 1 3-.6c1.7 0 3 .4 4 1.3 1 .8 1.4 2 1.5 3.5v6.8c0 1.3.1 2.4.5 3.2v.2Zm-4.1-1.9c.7 0 1.5-.2 2.2-.6.7-.4 1.2-1 1.5-1.6v-3h-2c-3 0-4.6.9-4.6 2.7 0 .8.3 1.4.8 1.8a3 3 0 0 0 2 .7ZM554.2 245.5v3.6h2.7v2h-2.7v9c0 .7 0 1.1.3 1.4.3.3.7.5 1.3.5l1.2-.2v2c-.7.2-1.3.3-2 .3-1.1 0-2-.3-2.5-1-.6-.7-.9-1.7-.9-3v-9H549v-2h2.7v-3.6ZM569 262.4c-1 1.1-2.5 1.7-4.4 1.7-1.5 0-2.7-.4-3.6-1.4-.8-.9-1.2-2.2-1.2-4V249h2.5v9.5c0 2.2 1 3.4 2.7 3.4 2 0 3.3-.8 3.9-2.2v-10.7h2.5v14.7H569ZM582.4 251.3h-1.2c-1.7 0-2.8.7-3.4 2v10.5h-2.6v-14.7h2.5v1.7a4 4 0 0 1 4.7-1.8ZM590.8 264.1c-2 0-3.6-.6-4.9-2a7.3 7.3 0 0 1-1.8-5.2v-.5c0-1.5.2-2.8.8-4 .6-1 1.4-2 2.4-2.6 1-.7 2-1 3.2-1 2 0 3.4.6 4.5 1.9 1 1.3 1.6 3 1.6 5.4v1h-10c0 1.5.4 2.7 1.3 3.6a4 4 0 0 0 3 1.4c1 0 1.7-.2 2.3-.6.7-.3 1.2-.8 1.7-1.4l1.5 1.2a6.2 6.2 0 0 1-5.6 2.8Zm-.3-13.2c-1 0-1.8.3-2.5 1.1-.7.7-1.2 1.8-1.3 3.1h7.4v-.2c0-1.3-.4-2.3-1-3-.7-.7-1.5-1-2.6-1ZM608.1 260c0-.8-.2-1.3-.8-1.7-.5-.3-1.4-.7-2.6-1-1.3-.2-2.3-.5-3.1-1-.7-.3-1.3-.8-1.7-1.3a3.8 3.8 0 0 1 1-5 6 6 0 0 1 4-1.2c1.6 0 3 .4 4 1.3s1.6 2 1.6 3.3H608c0-.7-.3-1.3-1-1.8-.5-.5-1.2-.7-2.1-.7-1 0-1.7.2-2.2.6-.5.4-.8.9-.8 1.5 0 .7.3 1.1.8 1.4.4.3 1.3.6 2.6 1 1.2.2 2.2.5 3 1 .8.3 1.4.8 1.8 1.3.3.6.5 1.3.5 2 0 1.4-.5 2.4-1.5 3.2-1.1.8-2.5 1.2-4.2 1.2-1.1 0-2.2-.2-3-.6-1-.4-1.7-1-2.2-1.8-.5-.7-.8-1.5-.8-2.4h2.5c0 .8.4 1.5 1 2a4 4 0 0 0 2.5.8 4 4 0 0 0 2.3-.6c.6-.4 1-1 1-1.6Zm0 0"/></svg>